<?xml version="1.0" encoding="UTF-8"?>
<svg version="1.1" xmlns="http://www.w3.org/2000/svg" width="274" height="210">
<path d="M0 0 C0.66 0 1.32 0 2 0 C2.40992188 1.21558594 2.81984375 2.43117188 3.2421875 3.68359375 C3.78607235 5.26836169 4.33036426 6.85298997 4.875 8.4375 C5.14441406 9.23994141 5.41382813 10.04238281 5.69140625 10.86914062 C5.95566406 11.63291016 6.21992188 12.39667969 6.4921875 13.18359375 C6.73308105 13.89056396 6.97397461 14.59753418 7.22216797 15.32592773 C7.88185759 17.20038805 7.88185759 17.20038805 10 18 C10 14.7 10 11.4 10 8 C13.15849685 6.42075158 16.5365128 6.85683486 20 6.875 C21.10601562 6.86919922 21.10601562 6.86919922 22.234375 6.86328125 C27.7466804 6.8733402 27.7466804 6.8733402 30 8 C30 11.96 30 15.92 30 20 C28.35 20.33 26.7 20.66 25 21 C25.33 17.04 25.66 13.08 26 9 C25.01 9 24.02 9 23 9 C22.97287934 10.43739513 22.95354933 11.87493863 22.9375 13.3125 C22.92589844 14.11300781 22.91429687 14.91351563 22.90234375 15.73828125 C22.90342145 18.16861334 22.90342145 18.16861334 24 21 C22.02 21 20.04 21 18 21 C18.33 20.01 18.66 19.02 19 18 C19.06665376 16.60560336 19.08538199 15.20830125 19.0625 13.8125 C19.041875 12.554375 19.02125 11.29625 19 10 C17.68 9.67 16.36 9.34 15 9 C14.80842203 13.88523811 15.12595954 16.31489886 17 21 C11.72 21 6.44 21 1 21 C1 18.69 1 16.38 1 14 C0.11935073 11.64630193 0.11935073 11.64630193 -1 10 C-1 11.32 -1 12.64 -1 14 C-1.66 14 -2.32 14 -3 14 C-3 15.98 -3 17.96 -3 20 C-4.98 20.33 -6.96 20.66 -9 21 C-9 20.01 -9 19.02 -9 18 C-8.55914062 17.59007813 -8.11828125 17.18015625 -7.6640625 16.7578125 C-5.24902399 14.20671548 -4.4463005 11.14841821 -3.375 7.875 C-1.10472973 1.10472973 -1.10472973 1.10472973 0 0 Z " fill="#D8BDC5" transform="translate(162,92)"/>
<path d="M0 0 C1.65 0 3.3 0 5 0 C4.88601335 1.62580966 4.75844341 3.25067157 4.625 4.875 C4.55539063 5.77992187 4.48578125 6.68484375 4.4140625 7.6171875 C4 10 4 10 2 12 C3.32 13.32 4.64 14.64 6 16 C4.125 20.875 4.125 20.875 3 22 C1.35769636 22.1245486 -0.29052276 22.17568524 -1.9375 22.1875 C-2.83339844 22.20167969 -3.72929688 22.21585938 -4.65234375 22.23046875 C-7 22 -7 22 -9 20 C-9 19.01 -9 18.02 -9 17 C-9.99 16.34 -10.98 15.68 -12 15 C-12.33 15.33 -12.66 15.66 -13 16 C-14.66617115 16.04063832 -16.33388095 16.042721 -18 16 C-18.55582752 14.04563873 -19.09428713 12.08633018 -19.625 10.125 C-19.92664063 9.03445312 -20.22828125 7.94390625 -20.5390625 6.8203125 C-20.69117187 5.88960938 -20.84328125 4.95890625 -21 4 C-20.34 3.34 -19.68 2.68 -19 2 C-18.01 2 -17.02 2 -16 2 C-15.67 5.63 -15.34 9.26 -15 13 C-12.70424397 10.70424397 -12.67660401 9.99157475 -12.375 6.875 C-12.25125 5.59625 -12.1275 4.3175 -12 3 C-11.01 3 -10.02 3 -9 3 C-8.67 5.97 -8.34 8.94 -8 12 C-7.10869587 9.3260876 -6.52268466 6.76276177 -6 4 C-4.02 3.34 -2.04 2.68 0 2 C0 1.34 0 0.68 0 0 Z M-2 4 C-2 5.98 -2 7.96 -2 10 C-1.34 10 -0.68 10 0 10 C0 8.35 0 6.7 0 5 C-0.66 4.67 -1.32 4.34 -2 4 Z M-5 17 C-4.67 18.32 -4.34 19.64 -4 21 C-2.02 20.67 -0.04 20.34 2 20 C1.67 18.68 1.34 17.36 1 16 C-2.7763932 15.7018576 -2.7763932 15.7018576 -5 17 Z " fill="#B98C99" transform="translate(38,97)"/>
<path d="M0 0 C2.08304538 -0.05418326 4.16649768 -0.09287551 6.25 -0.125 C7.99023438 -0.15980469 7.99023438 -0.15980469 9.765625 -0.1953125 C12.89301778 -0.00646028 14.47806499 0.20433652 17 2 C19.60620933 5.47494577 21 8.84410435 21 13.1875 C19.83409506 16.46660765 18.42067463 18.50812906 16 21 C12.71480525 22.09506492 10.26336585 22.09960608 6.8125 22.0625 C5.18248047 22.04896484 5.18248047 22.04896484 3.51953125 22.03515625 C2.68808594 22.02355469 1.85664062 22.01195313 1 22 C1 21.34 1 20.68 1 20 C1.66 20 2.32 20 3 20 C2.835 19.236875 2.67 18.47375 2.5 17.6875 C1.83437851 12.77854151 1.92079922 7.94564886 2 3 C1.34 3 0.68 3 0 3 C0 2.01 0 1.02 0 0 Z M8 2 C8 7.94 8 13.88 8 20 C13.01822386 19.23960974 13.01822386 19.23960974 16 16 C16.62299536 12.95237404 16.5041362 10.06359691 16 7 C13.51549507 3.45070725 12.28730531 3.07182633 8 2 Z " fill="#CBA9B2" transform="translate(75,91)"/>
<path d="M0 0 C3.375 0.875 3.375 0.875 5.375 2.875 C5.5 5.3125 5.5 5.3125 5.375 7.875 C5.12849371 10.79917515 5.12849371 10.79917515 6.4375 12.75 C7.6650902 15.53253779 7.2783101 17.01451802 6.375 19.875 C4.375 21.875 4.375 21.875 1.7734375 22.0703125 C0.77570312 22.04710938 -0.22203125 22.02390625 -1.25 22 C-2.75433594 21.97292969 -2.75433594 21.97292969 -4.2890625 21.9453125 C-5.05992188 21.92210938 -5.83078125 21.89890625 -6.625 21.875 C-7.75 19.5625 -7.75 19.5625 -8.625 16.875 C-7.635 15.39 -7.635 15.39 -6.625 13.875 C-4 13.6875 -4 13.6875 -1.625 13.875 C-1.0625 15.8125 -1.0625 15.8125 -0.625 17.875 C-0.955 18.205 -1.285 18.535 -1.625 18.875 C0.025 18.545 1.675 18.215 3.375 17.875 C3.375 16.885 3.375 15.895 3.375 14.875 C2.488125 14.606875 1.60125 14.33875 0.6875 14.0625 C-5.02834129 12.01342482 -5.02834129 12.01342482 -7.625 9.875 C-8.32403656 6.22447577 -8.07045792 4.56991436 -6.0625 1.4375 C-3.625 -0.125 -3.625 -0.125 0 0 Z M-1.625 1.875 C-2.615 2.865 -3.605 3.855 -4.625 4.875 C-3.305 6.195 -1.985 7.515 -0.625 8.875 C0.035 8.545 0.695 8.215 1.375 7.875 C1.045 6.885 0.715 5.895 0.375 4.875 C1.035 4.545 1.695 4.215 2.375 3.875 C1.055 3.215 -0.265 2.555 -1.625 1.875 Z " fill="#D4B4BC" transform="translate(9.625,91.125)"/>
<path d="M0 0 C2.4375 0.6875 2.4375 0.6875 4.4375 1.6875 C4.4375 4.9875 4.4375 8.2875 4.4375 11.6875 C5.4275 11.6875 6.4175 11.6875 7.4375 11.6875 C7.7675 9.0475 8.0975 6.4075 8.4375 3.6875 C7.7775 3.6875 7.1175 3.6875 6.4375 3.6875 C6.4375 3.0275 6.4375 2.3675 6.4375 1.6875 C9.7375 1.3575 13.0375 1.0275 16.4375 0.6875 C16.7675 2.0075 17.0975 3.3275 17.4375 4.6875 C16.4475 5.0175 15.4575 5.3475 14.4375 5.6875 C14.1075 5.3575 13.7775 5.0275 13.4375 4.6875 C13.32429144 9.77053686 13.32429144 9.77053686 14.4375 14.6875 C12.64591511 14.71446365 10.85421527 14.73387917 9.0625 14.75 C8.06476562 14.76160156 7.06703125 14.77320312 6.0390625 14.78515625 C3.4375 14.6875 3.4375 14.6875 1.4375 13.6875 C-0.57050456 13.96862064 -2.57264051 14.29817967 -4.5625 14.6875 C-5.6875 12.4375 -5.6875 12.4375 -6.5625 9.6875 C-5.625 7.625 -5.625 7.625 -4.5625 5.6875 C-4.86055007 3.49002869 -4.86055007 3.49002869 -5.5625 1.6875 C-2.5625 -0.3125 -2.5625 -0.3125 0 0 Z M-1.5625 2.6875 C-1.5625 3.6775 -1.5625 4.6675 -1.5625 5.6875 C-0.5725 5.6875 0.4175 5.6875 1.4375 5.6875 C1.1075 4.6975 0.7775 3.7075 0.4375 2.6875 C-0.2225 2.6875 -0.8825 2.6875 -1.5625 2.6875 Z M-1.5625 7.6875 C-1.8925 9.0075 -2.2225 10.3275 -2.5625 11.6875 C-1.2425 11.3575 0.0775 11.0275 1.4375 10.6875 C1.4375 9.6975 1.4375 8.7075 1.4375 7.6875 C0.4475 7.6875 -0.5425 7.6875 -1.5625 7.6875 Z " fill="#BB8E9A" transform="translate(49.5625,98.3125)"/>
<path d="M0 0 C1.65 0 3.3 0 5 0 C6.17426264 2.34852528 6.11508173 3.73774065 6.09765625 6.3515625 C6.09443359 7.20234375 6.09121094 8.053125 6.08789062 8.9296875 C6.07951172 9.81914063 6.07113281 10.70859375 6.0625 11.625 C6.05798828 12.5221875 6.05347656 13.419375 6.04882812 14.34375 C6.03702591 16.56256648 6.02056155 18.78125018 6 21 C5.236875 20.814375 4.47375 20.62875 3.6875 20.4375 C0.91032625 19.77180827 0.91032625 19.77180827 -2 21 C-4.1875 20.0625 -4.1875 20.0625 -6 18 C-6.69408089 14.37116405 -6.73244485 11.17191175 -4.75 8 C-3 7 -3 7 1 7 C0.67 4.69 0.34 2.38 0 0 Z M-1 9 C-2.41577477 10.18424326 -2.41577477 10.18424326 -2.0625 13.5625 C-2.041875 14.696875 -2.02125 15.83125 -2 17 C-1.01 17 -0.02 17 1 17 C1 14.69 1 12.38 1 10 C0.34 9.67 -0.32 9.34 -1 9 Z " fill="#B88996" transform="translate(129,92)"/>
<path d="M0 0 C1.10601562 -0.00580078 1.10601562 -0.00580078 2.234375 -0.01171875 C7.7466804 -0.0016598 7.7466804 -0.0016598 10 1.125 C10 5.085 10 9.045 10 13.125 C8.35 13.455 6.7 13.785 5 14.125 C5.33 10.165 5.66 6.205 6 2.125 C5.01 2.125 4.02 2.125 3 2.125 C2.97287934 3.56239513 2.95354933 4.99993863 2.9375 6.4375 C2.92589844 7.23800781 2.91429687 8.03851563 2.90234375 8.86328125 C2.90342145 11.29361334 2.90342145 11.29361334 4 14.125 C2.02 14.125 0.04 14.125 -2 14.125 C-1.67 13.135 -1.34 12.145 -1 11.125 C-0.93334624 9.73060336 -0.91461801 8.33330125 -0.9375 6.9375 C-0.958125 5.679375 -0.97875 4.42125 -1 3.125 C-2.32 2.795 -3.64 2.465 -5 2.125 C-5.33 5.755 -5.66 9.385 -6 13.125 C-6.66 13.125 -7.32 13.125 -8 13.125 C-8.06058594 12.42632812 -8.12117187 11.72765625 -8.18359375 11.0078125 C-8.26738281 10.09773438 -8.35117188 9.18765625 -8.4375 8.25 C-8.51871094 7.34507813 -8.59992188 6.44015625 -8.68359375 5.5078125 C-8.86989285 3.11389139 -8.86989285 3.11389139 -10 1.125 C-6.84150315 -0.45424842 -3.4634872 -0.01816514 0 0 Z " fill="#AC7585" transform="translate(182,98.875)"/>
<path d="M0 0 C0.99 0 1.98 0 3 0 C3.33 3.63 3.66 7.26 4 11 C6.29575603 8.70424397 6.32339599 7.99157475 6.625 4.875 C6.74875 3.59625 6.8725 2.3175 7 1 C7.99 1 8.98 1 10 1 C10.33 3.97 10.66 6.94 11 10 C14.63 10.66 18.26 11.32 22 12 C22.33 13.65 22.66 15.3 23 17 C22.67 16.01 22.34 15.02 22 14 C17.545 14.495 17.545 14.495 13 15 C12.67 15.99 12.34 16.98 12 18 C11.67 16.68 11.34 15.36 11 14 C9.05396726 13.40929986 9.05396726 13.40929986 7 13 C6.67 13.33 6.34 13.66 6 14 C4.33382885 14.04063832 2.66611905 14.042721 1 14 C0.44417248 12.04563873 -0.09428713 10.08633018 -0.625 8.125 C-0.92664063 7.03445312 -1.22828125 5.94390625 -1.5390625 4.8203125 C-1.69117187 3.88960938 -1.84328125 2.95890625 -2 2 C-1.34 1.34 -0.68 0.68 0 0 Z " fill="#A06174" transform="translate(19,99)"/>
<path d="M0 0 C0 7.26 0 14.52 0 22 C-1.32 21.67 -2.64 21.34 -4 21 C-4.680625 21.20625 -5.36125 21.4125 -6.0625 21.625 C-6.701875 21.74875 -7.34125 21.8725 -8 22 C-10.14692341 20.39899354 -10.91491793 19.46795136 -11.3984375 16.80859375 C-11.39070313 16.02613281 -11.38296875 15.24367188 -11.375 14.4375 C-11.38273437 13.65246094 -11.39046875 12.86742188 -11.3984375 12.05859375 C-11.26695313 11.37925781 -11.13546875 10.69992188 -11 10 C-8 8 -8 8 -4 8 C-3.67 6.35 -3.34 4.7 -3 3 C-3.66 3 -4.32 3 -5 3 C-5 2.34 -5 1.68 -5 1 C-2 0 -2 0 0 0 Z M-7 10 C-8.35439668 12.70879335 -8.06501451 15.00933268 -8 18 C-6.68 18 -5.36 18 -4 18 C-3.67 17.67 -3.34 17.34 -3 17 C-3.28730055 14.66055264 -3.61936779 12.3260857 -4 10 C-4.99 10 -5.98 10 -7 10 Z " fill="#B17E8C" transform="translate(121,91)"/>
<path d="M0 0 C2.65245842 3.28399614 2.3686963 6.9443407 2 11 C0.875 13 0.875 13 -1 14 C-4.39727068 13.92922353 -6.28421879 13.62034372 -8.875 11.375 C-10.47049156 8.00674004 -10.53431623 5.67342406 -10 2 C-6.70466403 -1.0128786 -4.16935132 -1.69027756 0 0 Z M-5 2 C-5 2.99 -5 3.98 -5 5 C-4.34 5 -3.68 5 -3 5 C-3 4.01 -3 3.02 -3 2 C-3.66 2 -4.32 2 -5 2 Z M-5 7 C-4.67 8.32 -4.34 9.64 -4 11 C-3.34 10.67 -2.68 10.34 -2 10 C-2 9.01 -2 8.02 -2 7 C-2.99 7 -3.98 7 -5 7 Z " fill="#CDAEB7" transform="translate(203,99)"/>
<path d="M0 0 C1.98 0 3.96 0 6 0 C6.33 1.65 6.66 3.3 7 5 C7.33 3.35 7.66 1.7 8 0 C9.65 0 11.3 0 13 0 C13 0.66 13 1.32 13 2 C12.01 2.495 12.01 2.495 11 3 C10.0872196 5.64179712 9.26557446 8.25334956 8.5 10.9375 C6.26415956 18.73584044 6.26415956 18.73584044 4 21 C1.375 20.625 1.375 20.625 -1 20 C-1 18.68 -1 17.36 -1 16 C0.32 16.33 1.64 16.66 3 17 C3.48667297 10.99769998 1.69882978 5.68299011 0 0 Z " fill="#D3B6BE" transform="translate(135,98)"/>
<path d="M0 0 C0 3.3 0 6.6 0 10 C0.66 10 1.32 10 2 10 C1.67 10.99 1.34 11.98 1 13 C0.278125 12.814375 -0.44375 12.62875 -1.1875 12.4375 C-3.98785845 11.83247571 -3.98785845 11.83247571 -6.6875 12.5625 C-7.450625 12.706875 -8.21375 12.85125 -9 13 C-11 11 -11 11 -11.1875 8.5 C-11 6 -11 6 -10 4 C-9.855625 3.154375 -9.71125 2.30875 -9.5625 1.4375 C-9.376875 0.633125 -9.19125 -0.17125 -9 -1 C-5.79937313 -2.60031344 -3.27728194 -1.03173691 0 0 Z M-7 1 C-7 1.99 -7 2.98 -7 4 C-6.01 4 -5.02 4 -4 4 C-4 3.01 -4 2.02 -4 1 C-4.99 1 -5.98 1 -7 1 Z M-6 6 C-6.33 7.32 -6.66 8.64 -7 10 C-6.01 9.67 -5.02 9.34 -4 9 C-4 8.01 -4 7.02 -4 6 C-4.66 6 -5.32 6 -6 6 Z " fill="#C59EA9" transform="translate(108,100)"/>
<path d="M0 0 C1 1 1 1 1.09765625 3.28515625 C1.08605469 4.20167969 1.07445312 5.11820312 1.0625 6.0625 C1.05347656 6.98160156 1.04445312 7.90070313 1.03515625 8.84765625 C1.02355469 9.55792969 1.01195312 10.26820312 1 11 C1.99 11 2.98 11 4 11 C3.67 11.99 3.34 12.98 3 14 C2.46375 13.814375 1.9275 13.62875 1.375 13.4375 C-1.60921116 12.88777689 -4.02946891 13.4833859 -7 14 C-7.66 13.67 -8.32 13.34 -9 13 C-9 2.72727273 -9 2.72727273 -8 0 C-4.69676014 -1.10107995 -3.29495231 -0.86709271 0 0 Z M-4 2 C-4 2.99 -4 3.98 -4 5 C-3.34 5 -2.68 5 -2 5 C-2 4.01 -2 3.02 -2 2 C-2.66 2 -3.32 2 -4 2 Z M-4 7 C-4.33 8.32 -4.66 9.64 -5 11 C-3.68 10.67 -2.36 10.34 -1 10 C-1.33 9.01 -1.66 8.02 -2 7 C-2.66 7 -3.32 7 -4 7 Z " fill="#D0ACB6" transform="translate(246,99)"/>
<path d="M0 0 C1.32 0 2.64 0 4 0 C4.33 0.66 4.66 1.32 5 2 C5.33 1.34 5.66 0.68 6 0 C7.32 0 8.64 0 10 0 C10.33 3.63 10.66 7.26 11 11 C8.125 11.125 8.125 11.125 5 11 C4.34 10.34 3.68 9.68 3 9 C1.68 9.33 0.36 9.66 -1 10 C-0.67 6.7 -0.34 3.4 0 0 Z M6 6 C7 9 7 9 7 9 Z " fill="#BF96A2" transform="translate(260,92)"/>
<path d="M0 0 C0.33 1.32 0.66 2.64 1 4 C-0.32 4.33 -1.64 4.66 -3 5 C-3.33 4.01 -3.66 3.02 -4 2 C-4.66 1.67 -5.32 1.34 -6 1 C-6 4.3 -6 7.6 -6 11 C-4.02 10.67 -2.04 10.34 0 10 C0 10.66 0 11.32 0 12 C-6.25925926 13.44444444 -6.25925926 13.44444444 -9.5 11.5 C-11 9 -11 9 -10.9375 5.4375 C-10 2 -10 2 -8.875 0 C-5.85200363 -1.61226473 -3.2411345 -0.67268829 0 0 Z " fill="#DBC1C7" transform="translate(235,100)"/>
<path d="M0 0 C0.33 1.32 0.66 2.64 1 4 C-0.9375 4.5625 -0.9375 4.5625 -3 5 C-3.33 4.67 -3.66 4.34 -4 4 C-4 6.31 -4 8.62 -4 11 C-3.34 11.33 -2.68 11.66 -2 12 C-2 12.66 -2 13.32 -2 14 C-4.31 14 -6.62 14 -9 14 C-8.67 10.37 -8.34 6.74 -8 3 C-8.66 3 -9.32 3 -10 3 C-10 2.34 -10 1.68 -10 1 C-6.61981469 -0.04005702 -3.5219721 -0.08004482 0 0 Z " fill="#B27E8D" transform="translate(216,99)"/>
<path d="M0 0 C3.375 0.875 3.375 0.875 5.375 2.875 C5.5 5.5 5.5 5.5 5.375 7.875 C3.725 8.535 2.075 9.195 0.375 9.875 C0.332279 8.20888095 0.33436168 6.54117115 0.375 4.875 C0.705 4.545 1.035 4.215 1.375 3.875 C-0.275 3.545 -1.925 3.215 -3.625 2.875 C-3.295 4.525 -2.965 6.175 -2.625 7.875 C-3.615 7.545 -4.605 7.215 -5.625 6.875 C-5.625 7.865 -5.625 8.855 -5.625 9.875 C-6.285 9.875 -6.945 9.875 -7.625 9.875 C-7.94491247 6.35596286 -7.99669764 4.45484832 -6.0625 1.4375 C-3.625 -0.125 -3.625 -0.125 0 0 Z " fill="#DAC2C8" transform="translate(9.625,91.125)"/>
<path d="M0 0 C0.33 0.66 0.66 1.32 1 2 C1.721875 1.7525 2.44375 1.505 3.1875 1.25 C6 1 6 1 8.75 2.6875 C12 6.02777778 12 6.02777778 12 9 C10.81640625 11.1015625 10.81640625 11.1015625 9 13 C6.58984375 13.4609375 6.58984375 13.4609375 3.9375 13.375 C3.05964844 13.36210938 2.18179688 13.34921875 1.27734375 13.3359375 C-1 13 -1 13 -3 11 C-2.67 10.01 -2.34 9.02 -2 8 C-1.67 8.66 -1.34 9.32 -1 10 C-0.34 9.34 0.32 8.68 1 8 C1.33 8.99 1.66 9.98 2 11 C3.98 11 5.96 11 8 11 C7.67 9.68 7.34 8.36 7 7 C7.66 6.67 8.32 6.34 9 6 C6.98177083 5.83723958 4.96354167 5.67447917 2.9453125 5.51171875 C1 5 1 5 -1 2 C-0.67 1.34 -0.34 0.68 0 0 Z " fill="#D6BBC2" transform="translate(32,106)"/>
<path d="M0 0 C2.97 0 5.94 0 9 0 C9 1.65 9 3.3 9 5 C8.34 5 7.68 5 7 5 C7 6.98 7 8.96 7 11 C5.35 11 3.7 11 2 11 C2 8.69 2 6.38 2 4 C1.01 4 0.02 4 -1 4 C-0.67 2.68 -0.34 1.36 0 0 Z " fill="#C094A1" transform="translate(250,92)"/>
<path d="M0 0 C0.99 0 1.98 0 3 0 C3.33 3.63 3.66 7.26 4 11 C4.99 10.34 5.98 9.68 7 9 C7.33 9.99 7.66 10.98 8 12 C6 14 6 14 3.375 14.125 C2.59125 14.08375 1.8075 14.0425 1 14 C0.44417248 12.04563873 -0.09428713 10.08633018 -0.625 8.125 C-0.92664063 7.03445312 -1.22828125 5.94390625 -1.5390625 4.8203125 C-1.69117187 3.88960938 -1.84328125 2.95890625 -2 2 C-1.34 1.34 -0.68 0.68 0 0 Z " fill="#B17D8C" transform="translate(19,99)"/>
<path d="M0 0 C0.66 0 1.32 0 2 0 C2.33 1.65 2.66 3.3 3 5 C2.01 5 1.02 5 0 5 C-0.33 7.97 -0.66 10.94 -1 14 C-1.66 14 -2.32 14 -3 14 C-3 15.98 -3 17.96 -3 20 C-4.98 20.33 -6.96 20.66 -9 21 C-9 20.01 -9 19.02 -9 18 C-8.55914062 17.59007813 -8.11828125 17.18015625 -7.6640625 16.7578125 C-5.24902399 14.20671548 -4.4463005 11.14841821 -3.375 7.875 C-1.10472973 1.10472973 -1.10472973 1.10472973 0 0 Z " fill="#D9C0C8" transform="translate(162,92)"/>
<path d="M0 0 C0.763125 0.20625 1.52625 0.4125 2.3125 0.625 C1.9825 1.615 1.6525 2.605 1.3125 3.625 C1.3125 2.965 1.3125 2.305 1.3125 1.625 C0.3225 1.625 -0.6675 1.625 -1.6875 1.625 C-1.6875 4.265 -1.6875 6.905 -1.6875 9.625 C-0.3675 9.295 0.9525 8.965 2.3125 8.625 C1.9825 9.945 1.6525 11.265 1.3125 12.625 C-0.5 13.3125 -0.5 13.3125 -2.6875 13.625 C-4.8448658 12.02656432 -5.60141529 11.09846589 -6.0859375 8.43359375 C-6.07820313 7.65113281 -6.07046875 6.86867188 -6.0625 6.0625 C-6.07023437 5.27746094 -6.07796875 4.49242188 -6.0859375 3.68359375 C-5.95445313 3.00425781 -5.82296875 2.32492188 -5.6875 1.625 C-2.6875 -0.375 -2.6875 -0.375 0 0 Z " fill="#B88996" transform="translate(115.6875,99.375)"/>
<path d="M0 0 C0.99 0 1.98 0 3 0 C3.33 6.27 3.66 12.54 4 19 C3.01 19 2.02 19 1 19 C-0.25433458 15.23699626 -0.10695422 11.72789091 -0.0625 7.8125 C-0.05798828 7.06291016 -0.05347656 6.31332031 -0.04882812 5.54101562 C-0.03706354 3.69397617 -0.01912865 1.84697787 0 0 Z " fill="#8F455A" transform="translate(78,93)"/>
<path d="M0 0 C4 2 4 2 4.9375 4.75 C5.01372424 8.71366054 4.20691329 10.7276803 2 14 C0.68 14.33 -0.64 14.66 -2 15 C-1.34 10.05 -0.68 5.1 0 0 Z " fill="#A05E70" transform="translate(91,96)"/>
<path d="M0 0 C0.99 0 1.98 0 3 0 C3 1.65 3 3.3 3 5 C3.99 5 4.98 5 6 5 C6.33 4.34 6.66 3.68 7 3 C7.3633218 9.41868512 7.3633218 9.41868512 5.75 12 C4 13 4 13 1.8125 12.6875 C1.214375 12.460625 0.61625 12.23375 0 12 C1 9 1 9 2 7 C1.34 6.67 0.68 6.34 0 6 C0 5.34 0 4.68 0 4 C0.66 4 1.32 4 2 4 C2 3.01 2 2.02 2 1 C1.34 0.67 0.68 0.34 0 0 Z " fill="#E0C7CF" transform="translate(198,100)"/>
<path d="M0 0 C3.76107556 3.14951856 4.6211545 5.42885116 5.25 10.25 C5.39953125 11.32765625 5.5490625 12.4053125 5.703125 13.515625 C5.80109375 14.33546875 5.8990625 15.1553125 6 16 C5.34 16 4.68 16 4 16 C0.99514165 11.2503852 -0.6620838 7.74457537 -1 2 C-0.67 1.34 -0.34 0.68 0 0 Z " fill="#8D4156" transform="translate(162,95)"/>
<path d="M0 0 C0.33 0 0.66 0 1 0 C1 5.94 1 11.88 1 18 C3.31 17.34 5.62 16.68 8 16 C8.33 16.99 8.66 17.98 9 19 C5.71480525 20.09506492 3.26336585 20.09960608 -0.1875 20.0625 C-1.81751953 20.04896484 -1.81751953 20.04896484 -3.48046875 20.03515625 C-4.31191406 20.02355469 -5.14335938 20.01195313 -6 20 C-6 19.34 -6 18.68 -6 18 C-5.34 18 -4.68 18 -4 18 C-3.67 17.34 -3.34 16.68 -3 16 C-3 16.99 -3 17.98 -3 19 C-2.01 19 -1.02 19 0 19 C0 12.73 0 6.46 0 0 Z " fill="#E2CDD3" transform="translate(82,93)"/>
<path d="M0 0 C1.32 0 2.64 0 4 0 C4.33 4.29 4.66 8.58 5 13 C3.02 13.33 1.04 13.66 -1 14 C-0.67 13.01 -0.34 12.02 0 11 C0.0685495 9.10529184 0.08480372 7.2083166 0.0625 5.3125 C0.05347656 4.31863281 0.04445312 3.32476562 0.03515625 2.30078125 C0.02355469 1.54152344 0.01195312 0.78226562 0 0 Z " fill="#AA7081" transform="translate(218,99)"/>
<path d="M0 0 C1.82355623 2.73533435 2.51551683 4.32643913 3.25 7.4375 C3.44078125 8.19933594 3.6315625 8.96117188 3.828125 9.74609375 C4.03309948 12.43405459 3.38592445 13.72977301 2 16 C0.35 15.67 -1.3 15.34 -3 15 C-3 13.68 -3 12.36 -3 11 C-1.68 11.33 -0.36 11.66 1 12 C1.0984702 7.86425173 0.77403558 4.06368679 0 0 Z " fill="#DCC6CC" transform="translate(137,103)"/>
<path d="M0 0 C0.99 0.33 1.98 0.66 3 1 C2.67 1.66 2.34 2.32 2 3 C1.34 3 0.68 3 0 3 C0.33 6.3 0.66 9.6 1 13 C-0.32 12.34 -1.64 11.68 -3 11 C-3.36923077 3.49230769 -3.36923077 3.49230769 -1.5 1 C-1.005 0.67 -0.51 0.34 0 0 Z " fill="#B78593" transform="translate(126,99)"/>
<path d="M0 0 C0.33 0 0.66 0 1 0 C1.33 5.61 1.66 11.22 2 17 C0.35 17.33 -1.3 17.66 -3 18 C-4.28317892 14.15046324 -4.06643637 11.05261865 -4 7 C-3.67 7 -3.34 7 -3 7 C-2.67 9.31 -2.34 11.62 -2 14 C-1.67 14 -1.34 14 -1 14 C-1 12.906875 -1 11.81375 -1 10.6875 C-1 3.625 -1 3.625 0 0 Z " fill="#DBC4CB" transform="translate(130,95)"/>
<path d="M0 0 C1.98 0 3.96 0 6 0 C5.979375 1.216875 5.95875 2.43375 5.9375 3.6875 C5.93175884 6.91977322 6.21233685 9.84934741 7 13 C6.34 13 5.68 13 5 13 C4.35309078 11.3962669 3.70751236 9.79199694 3.0625 8.1875 C2.70285156 7.29417969 2.34320313 6.40085937 1.97265625 5.48046875 C1.26386514 3.6729091 0.6139753 1.84192591 0 0 Z " fill="#A66B7C" transform="translate(135,98)"/>
<path d="M0 0 C0.66 0.66 1.32 1.32 2 2 C3.7634375 2.7115625 3.7634375 2.7115625 5.5625 3.4375 C6.696875 3.953125 7.83125 4.46875 9 5 C9.33 5.99 9.66 6.98 10 8 C6.38102827 8.32899743 4.60496861 8.44576634 1.625 6.25 C0 4 0 4 0 0 Z " fill="#9A576A" transform="translate(3,96)"/>
<path d="M0 0 C2.625 -0.1875 2.625 -0.1875 5 0 C5.33 1.32 5.66 2.64 6 4 C2.535 5.485 2.535 5.485 -1 7 C-1.625 5.1875 -1.625 5.1875 -2 3 C-1.34 2.01 -0.68 1.02 0 0 Z " fill="#DEC7CD" transform="translate(3,105)"/>
<path d="M0 0 C-0.99 1.485 -0.99 1.485 -2 3 C-2.66 2.67 -3.32 2.34 -4 2 C-4 2.99 -4 3.98 -4 5 C-3.01 5 -2.02 5 -1 5 C-1 5.66 -1 6.32 -1 7 C-3.96175123 6.38722388 -5.38058783 5.74627478 -8 4 C-7.625 2.0625 -7.625 2.0625 -7 0 C-4.3333581 -1.33332095 -2.83319697 -0.67102033 0 0 Z " fill="#DBC4CB" transform="translate(52,99)"/>
<path d="M0 0 C0.99 0 1.98 0 3 0 C3 3.96 3 7.92 3 12 C2.34 12 1.68 12 1 12 C-0.26237731 9.47524538 -0.09856404 7.68799534 -0.0625 4.875 C-0.05347656 3.96492188 -0.04445313 3.05484375 -0.03515625 2.1171875 C-0.02355469 1.41851562 -0.01195313 0.71984375 0 0 Z " fill="#9C5B6D" transform="translate(26,100)"/>
<path d="M0 0 C0.66 0 1.32 0 2 0 C2 3.3 2 6.6 2 10 C2.66 10 3.32 10 4 10 C3.67 10.99 3.34 11.98 3 13 C-0.875 12.125 -0.875 12.125 -2 11 C-2.07205511 9.31391034 -2.08386068 7.62499341 -2.0625 5.9375 C-2.05347656 5.01839844 -2.04445313 4.09929687 -2.03515625 3.15234375 C-2.02355469 2.44207031 -2.01195313 1.73179688 -2 1 C-1.67 1 -1.34 1 -1 1 C-0.67 3.97 -0.34 6.94 0 10 C0 6.7 0 3.4 0 0 Z " fill="#D9C1C7" transform="translate(106,100)"/>
<path d="M0 0 C0.66 0 1.32 0 2 0 C2 3.3 2 6.6 2 10 C0.68 9.34 -0.64 8.68 -2 8 C-1.125 1.125 -1.125 1.125 0 0 Z " fill="#A5697A" transform="translate(226,101)"/>
<path d="M0 0 C1.32 0 2.64 0 4 0 C4.66 0.99 5.32 1.98 6 3 C5.67 3.99 5.34 4.98 5 6 C4.34 4.35 3.68 2.7 3 1 C2.34 1 1.68 1 1 1 C1.33 1.7425 1.66 2.485 2 3.25 C3 6 3 6 3 10 C1.68 9.67 0.36 9.34 -1 9 C-0.67 6.03 -0.34 3.06 0 0 Z " fill="#DECBD0" transform="translate(260,92)"/>
<path d="M0 0 C0.66 0 1.32 0 2 0 C2 3.3 2 6.6 2 10 C2.99 10 3.98 10 5 10 C4.67 10.99 4.34 11.98 4 13 C3.01 13 2.02 13 1 13 C-0.00496852 9.98509443 -0.10335303 7.95818308 -0.0625 4.8125 C-0.05347656 3.91144531 -0.04445312 3.01039062 -0.03515625 2.08203125 C-0.02355469 1.39496094 -0.01195312 0.70789063 0 0 Z " fill="#AC7584" transform="translate(245,100)"/>
<path d="M0 0 C1.2065625 0.0309375 1.2065625 0.0309375 2.4375 0.0625 C2.7675 0.7225 3.0975 1.3825 3.4375 2.0625 C2.7775 2.0625 2.1175 2.0625 1.4375 2.0625 C1.4375 3.0525 1.4375 4.0425 1.4375 5.0625 C2.0975 5.3925 2.7575 5.7225 3.4375 6.0625 C0.4675 5.5675 0.4675 5.5675 -2.5625 5.0625 C-3.125 3.125 -3.125 3.125 -3.5625 1.0625 C-2.5625 0.0625 -2.5625 0.0625 0 0 Z " fill="#DEC8CE" transform="translate(240.5625,98.9375)"/>
<path d="M0 0 C2.45823172 3.68734758 3.01242616 6.69699971 4 11 C1.69 11.33 -0.62 11.66 -3 12 C-2.67 10.02 -2.34 8.04 -2 6 C-1.34 7.32 -0.68 8.64 0 10 C0.66 10 1.32 10 2 10 C1.505 8.63875 1.505 8.63875 1 7.25 C0 4 0 4 0 0 Z " fill="#C7A1AB" transform="translate(166,101)"/>
<path d="M0 0 C1.98 0 3.96 0 6 0 C5.67 1.65 5.34 3.3 5 5 C3.68 5 2.36 5 1 5 C0.67 3.35 0.34 1.7 0 0 Z " fill="#BB8D9B" transform="translate(217,91)"/>
<path d="M0 0 C1.32 0 2.64 0 4 0 C4 3.96 4 7.92 4 12 C3.34 12 2.68 12 2 12 C1.93941406 11.30132812 1.87882813 10.60265625 1.81640625 9.8828125 C1.73261719 8.97273438 1.64882812 8.06265625 1.5625 7.125 C1.48128906 6.22007813 1.40007812 5.31515625 1.31640625 4.3828125 C1.13010715 1.98889139 1.13010715 1.98889139 0 0 Z " fill="#954E62" transform="translate(172,100)"/>
<path d="M0 0 C0.66 0 1.32 0 2 0 C2 0.66 2 1.32 2 2 C2.66 2 3.32 2 4 2 C4 3.65 4 5.3 4 7 C2.68 7.33 1.36 7.66 0 8 C0 5.36 0 2.72 0 0 Z " fill="#B68593" transform="translate(38,100)"/>
<path d="M0 0 C2.97 0 5.94 0 9 0 C9 1.65 9 3.3 9 5 C8.34 5 7.68 5 7 5 C6.34 6.32 5.68 7.64 5 9 C5 6.36 5 3.72 5 1 C3.35 1 1.7 1 0 1 C0 0.67 0 0.34 0 0 Z " fill="#E3D0D6" transform="translate(250,92)"/>
<path d="M0 0 C0.66 0 1.32 0 2 0 C2 2.97 2 5.94 2 9 C1.01 9 0.02 9 -1 9 C-1.09765625 2.84765625 -1.09765625 2.84765625 -1 1 C-0.67 0.67 -0.34 0.34 0 0 Z " fill="#9D5D6F" transform="translate(195,101)"/>
<path d="M0 0 C1.32 0.66 2.64 1.32 4 2 C4 3.65 4 5.3 4 7 C3.01 7 2.02 7 1 7 C1 6.34 1 5.68 1 5 C-0.32 4.34 -1.64 3.68 -3 3 C-1.68 3 -0.36 3 1 3 C0.67 2.01 0.34 1.02 0 0 Z " fill="#BE949F" transform="translate(12,101)"/>
<path d="M0 0 C0.99 0 1.98 0 3 0 C3 1.65 3 3.3 3 5 C4.32 5.33 5.64 5.66 7 6 C4.625 6.625 4.625 6.625 2 7 C0 5 0 5 -0.125 2.375 C-0.08375 1.59125 -0.0425 0.8075 0 0 Z " fill="#AE7988" transform="translate(97,106)"/>
<path d="M0 0 C2.0625 1.75 2.0625 1.75 4 4 C3.75 6.25 3.75 6.25 3 8 C3 7.01 3 6.02 3 5 C2.34 5 1.68 5 1 5 C1.33 6.98 1.66 8.96 2 11 C-0.7865517 8.2134483 -0.65662895 5.84575573 -1 2 C-0.67 1.34 -0.34 0.68 0 0 Z " fill="#9F5F71" transform="translate(162,95)"/>
<path d="M0 0 C1.65 0 3.3 0 5 0 C5.33 1.32 5.66 2.64 6 4 C4.125 4.625 4.125 4.625 2 5 C1.34 4.34 0.68 3.68 0 3 C0 2.01 0 1.02 0 0 Z " fill="#D4BAC1" transform="translate(211,99)"/>
<path d="M0 0 C1.65 0 3.3 0 5 0 C4.67 1.65 4.34 3.3 4 5 C3.34 5 2.68 5 2 5 C2 4.34 2 3.68 2 3 C1.34 3 0.68 3 0 3 C-0.33 3.66 -0.66 4.32 -1 5 C-1.33 4.01 -1.66 3.02 -2 2 C-1.34 2 -0.68 2 0 2 C0 1.34 0 0.68 0 0 Z " fill="#D8BFC6" transform="translate(38,97)"/>
<path d="M0 0 C0.33 0 0.66 0 1 0 C1 3.96 1 7.92 1 12 C-0.65 12.33 -2.3 12.66 -4 13 C-3.67 11.02 -3.34 9.04 -3 7 C-2.67 8.32 -2.34 9.64 -2 11 C-1.34 11 -0.68 11 0 11 C0 7.37 0 3.74 0 0 Z " fill="#CCACB5" transform="translate(191,100)"/>
<path d="M0 0 C1.98 0 3.96 0 6 0 C6.33 1.32 6.66 2.64 7 4 C6.01 4.33 5.02 4.66 4 5 C2.64567325 3.68799596 1.31266518 2.35368596 0 1 C0 0.67 0 0.34 0 0 Z " fill="#CEAFB8" transform="translate(60,99)"/>
<path d="M0 0 C0.99 0.33 1.98 0.66 3 1 C2.67 3.31 2.34 5.62 2 8 C1.34 7.67 0.68 7.34 0 7 C0 6.01 0 5.02 0 4 C-0.99 3.67 -1.98 3.34 -3 3 C-2.34 3 -1.68 3 -1 3 C-0.67 2.01 -0.34 1.02 0 0 Z " fill="#B98A98" transform="translate(30,109)"/>
<path d="M0 0 C0.33 0 0.66 0 1 0 C1 2.31 1 4.62 1 7 C1.66 7 2.32 7 3 7 C2.34 8.32 1.68 9.64 1 11 C0.01 10.67 -0.98 10.34 -2 10 C-1.34 6.7 -0.68 3.4 0 0 Z " fill="#A87080" transform="translate(91,100)"/>
<path d="M0 0 C0.66 0 1.32 0 2 0 C2.33 1.65 2.66 3.3 3 5 C2.01 5 1.02 5 0 5 C-0.33 6.32 -0.66 7.64 -1 9 C-1.80967438 6.08517222 -2.21845993 4.53886783 -1.0625 1.6875 C-0.711875 1.130625 -0.36125 0.57375 0 0 Z " fill="#CFAEBA" transform="translate(162,92)"/>
<path d="M0 0 C0.33 0.99 0.66 1.98 1 3 C0.34 3.66 -0.32 4.32 -1 5 C-3.625 4.625 -3.625 4.625 -6 4 C-4.60804085 1.2160817 -2.84424221 1.02101003 0 0 Z " fill="#D5BCC3" transform="translate(117,108)"/>
<path d="M0 0 C0.99 0 1.98 0 3 0 C3.33 1.98 3.66 3.96 4 6 C2.68 6 1.36 6 0 6 C0 4.02 0 2.04 0 0 Z " fill="#AB7483" transform="translate(237,106)"/>
<path d="M0 0 C0.99 0.33 1.98 0.66 3 1 C3 1.66 3 2.32 3 3 C3.99 3.33 4.98 3.66 6 4 C4.02 4.66 2.04 5.32 0 6 C-1.125 2.25 -1.125 2.25 0 0 Z " fill="#EBDDE1" transform="translate(2,106)"/>
<path d="M0 0 C0.66 0.33 1.32 0.66 2 1 C2 2.32 2 3.64 2 5 C0.68 5.33 -0.64 5.66 -2 6 C-2 4.35 -2 2.7 -2 1 C-1.34 0.67 -0.68 0.34 0 0 Z " fill="#E5D5D9" transform="translate(12,95)"/>
<path d="M0 0 C0.66 0.99 1.32 1.98 2 3 C0 5 0 5 -2.625 5.125 C-3.40875 5.08375 -4.1925 5.0425 -5 5 C-3.768606 2.53721199 -2.21935077 1.57502313 0 0 Z " fill="#D4B7BE" transform="translate(25,108)"/>
<path d="M0 0 C0.33 0.66 0.66 1.32 1 2 C2.32 1.67 3.64 1.34 5 1 C5 1.99 5 2.98 5 4 C3.02 4.33 1.04 4.66 -1 5 C-0.67 3.35 -0.34 1.7 0 0 Z " fill="#D2B8C0" transform="translate(240,108)"/>
<path d="M0 0 C0.33 0.66 0.66 1.32 1 2 C1.78375 1.79375 2.5675 1.5875 3.375 1.375 C4.674375 1.189375 4.674375 1.189375 6 1 C6.66 1.66 7.32 2.32 8 3 C4.67465243 4.10844919 2.37817425 3.84454356 -1 3 C-0.67 2.01 -0.34 1.02 0 0 Z " fill="#E4C5D2" transform="translate(32,106)"/>
<path d="M0 0 C0.99 0.33 1.98 0.66 3 1 C3 2.65 3 4.3 3 6 C2.01 6 1.02 6 0 6 C0 4.02 0 2.04 0 0 Z " fill="#A96F7F" transform="translate(201,99)"/>
<path d="M0 0 C1.4540625 0.0309375 1.4540625 0.0309375 2.9375 0.0625 C2.2775 1.3825 1.6175 2.7025 0.9375 4.0625 C0.9375 3.4025 0.9375 2.7425 0.9375 2.0625 C-0.0525 2.0625 -1.0425 2.0625 -2.0625 2.0625 C-2.3925 3.0525 -2.7225 4.0425 -3.0625 5.0625 C-3.625 3.125 -3.625 3.125 -4.0625 1.0625 C-3.0625 0.0625 -3.0625 0.0625 0 0 Z " fill="#D2ACC0" transform="translate(187.0625,98.9375)"/>
<path d="M0 0 C0.33 0 0.66 0 1 0 C1 4.29 1 8.58 1 13 C0.67 13 0.34 13 0 13 C-2.21538462 5.73846154 -2.21538462 5.73846154 -1.125 2 C-0.75375 1.34 -0.3825 0.68 0 0 Z " fill="#E4D2D5" transform="translate(130,95)"/>
</svg>
